<?xml version="1.0" encoding="UTF-8"?>
<svg xmlns="http://www.w3.org/2000/svg" xmlns:xlink="http://www.w3.org/1999/xlink" width="499.1pt" height="505.3pt" viewBox="0 0 499.1 505.3" version="1.1">
<defs>
<clipPath id="clip1">
  <path d="M 202 91 L 499.101563 91 L 499.101563 505.300781 L 202 505.300781 Z M 202 91 "/>
</clipPath>
</defs>
<g id="surface1">
<g clip-path="url(#clip1)" clip-rule="nonzero">
<path style=" stroke:none;fill-rule:evenodd;fill:rgb(89.0625%,0%,8.616638%);fill-opacity:1;" d="M 209.398438 307.699219 L 208.8125 309.542969 L 208.476563 311.222656 L 208.222656 312.484375 L 208.308594 313.488281 L 207.804688 318.273438 L 207.554688 319.535156 L 207.386719 320.289063 L 207.21875 321.210938 L 206.125 324.066406 L 205.707031 325.074219 L 205.285156 326.164063 L 204.699219 327.171875 L 204.027344 328.347656 L 203.441406 329.605469 L 203.1875 330.699219 L 202.9375 331.707031 L 203.019531 332.628906 L 203.019531 336.324219 L 205.117188 339.007813 L 206.125 342.113281 L 205.707031 344.886719 L 205.707031 347.992188 L 205.539063 348.828125 L 205.453125 349.164063 L 205.453125 349.585938 L 205.285156 349.835938 L 205.203125 350.171875 L 205.035156 350.761719 L 204.617188 351.265625 L 204.363281 351.851563 L 204.109375 352.273438 L 204.027344 352.773438 L 203.691406 353.613281 L 203.523438 354.285156 L 203.1875 354.707031 L 203.019531 354.957031 L 203.019531 358.734375 L 207.804688 360.246094 L 208.558594 360.414063 L 209.484375 360.496094 L 210.40625 360.414063 L 211.5 360.246094 L 216.285156 360.75 L 221.066406 357.644531 L 221.402344 357.390625 L 221.90625 357.308594 L 223.167969 357.558594 L 224.59375 358.316406 L 226.355469 359.742188 L 231.226563 362.511719 L 232.734375 366.625 L 232.734375 370.90625 L 233.828125 373.59375 L 233.828125 377.957031 L 234.078125 378.546875 L 234.332031 378.964844 L 234.917969 379.386719 L 238.023438 379.386719 L 240.207031 378.292969 L 242.136719 378.378906 L 243.0625 378.460938 L 243.984375 378.714844 L 244.738281 378.882813 L 245.578125 379.21875 L 247.089844 379.972656 L 248.265625 380.644531 L 248.097656 381.0625 L 247.59375 381.566406 L 247.339844 382.324219 L 247.089844 383.078125 L 247.089844 384.171875 L 247.007813 384.671875 L 247.007813 386.351563 L 246.839844 387.191406 L 246.839844 387.949219 L 246 389.960938 L 245.746094 392.898438 L 245.578125 394.578125 L 245.496094 395.25 L 245.496094 395.921875 L 245.160156 396.929688 L 244.992188 398.105469 L 244.992188 400.707031 L 250.785156 400.707031 L 251.457031 400.789063 L 252.210938 401.210938 L 252.796875 401.796875 L 253.46875 402.722656 L 253.972656 406.5 L 253.722656 407.507813 L 253.300781 408.847656 L 252.964844 410.695313 L 252.628906 411.535156 L 252.460938 411.789063 L 252.378906 412.121094 L 252.125 412.289063 L 251.957031 412.457031 L 251.707031 412.457031 L 251.707031 412.542969 L 251.539063 412.625 L 251.121094 412.457031 L 250.785156 412.289063 L 248.097656 412.878906 L 246.753906 413.128906 L 246.167969 413.382813 L 245.746094 413.800781 L 244.488281 414.472656 L 243.398438 414.976563 L 239.703125 415.984375 L 239.199219 416.070313 L 238.695313 416.320313 L 237.519531 417.074219 L 236.007813 418 L 234.332031 419.257813 L 229.042969 422.953125 L 228.371094 423.371094 L 227.785156 423.707031 L 226.859375 424.210938 L 226.1875 424.210938 L 225.9375 424.125 L 225.851563 423.957031 L 223.167969 426.140625 L 226.355469 428.828125 L 229.628906 430.421875 L 229.042969 432.519531 L 224.257813 439.40625 L 220.480469 442.679688 L 217.375 447.378906 L 210.996094 452.667969 L 207.804688 455.941406 L 206.125 458.628906 L 206.714844 461.816406 L 212.003906 461.230469 L 214.101563 460.136719 L 218.96875 462.238281 L 219.726563 462.574219 L 220.648438 463.328125 L 221.570313 464.25 L 222.664063 465.511719 L 225.851563 470.210938 L 230.636719 470.210938 L 231.308594 470.296875 L 231.558594 470.378906 L 231.898438 470.632813 L 232.066406 470.800781 L 232.316406 471.136719 L 232.734375 471.890625 L 238.023438 475.582031 L 248.097656 480.367188 L 252.460938 483.558594 L 255.066406 488.34375 L 258.757813 488.34375 L 259.175781 488.175781 L 259.347656 488.089844 L 259.597656 488.089844 L 259.683594 487.921875 L 259.847656 487.839844 L 260.183594 487.585938 L 260.183594 487.335938 L 260.269531 487.167969 L 260.4375 486.75 L 260.4375 485.65625 L 261.949219 485.152344 L 262.199219 484.984375 L 262.703125 484.984375 L 262.871094 485.238281 L 262.871094 485.742188 L 262.703125 486.160156 L 262.535156 486.75 L 261.445313 488.511719 L 260.4375 490.945313 L 260.101563 491.53125 L 259.847656 491.953125 L 259.429688 492.371094 L 259.175781 492.289063 L 259.011719 492.203125 L 258.84375 491.953125 L 258.757813 491.53125 L 256.660156 491.53125 L 253.972656 492.625 L 251.371094 495.8125 L 250.785156 500.597656 L 252.460938 505.300781 L 253.972656 504.796875 L 255.652344 502.195313 L 257.75 500.011719 L 259.765625 498.082031 L 261.949219 496.820313 L 262.367188 496.484375 L 262.703125 496.234375 L 263.125 495.8125 L 263.125 495.644531 L 263.039063 495.476563 L 262.535156 495.226563 L 265.726563 492.035156 L 266.734375 489.9375 L 267.238281 488.679688 L 267.738281 487.585938 L 268.410156 485.65625 L 269.921875 477.765625 L 270.511719 476.085938 L 270.59375 475.582031 L 270.847656 475.164063 L 271.683594 474.15625 L 272.105469 473.570313 L 272.691406 473.066406 L 274.203125 471.890625 L 277.898438 467.609375 L 279.574219 464.921875 L 279.828125 464 L 280.414063 462.992188 L 281.171875 461.902344 L 281.589844 461.230469 L 282.179688 460.640625 L 283.269531 459.632813 L 283.269531 459.886719 L 283.519531 460.054688 L 283.773438 460.136719 L 284.277344 460.136719 L 285.285156 460.054688 L 285.199219 460.136719 L 285.285156 460.304688 L 285.871094 460.640625 L 286.460938 460.894531 L 286.796875 461.3125 L 286.796875 461.734375 L 286.460938 462.238281 L 284.863281 467.105469 L 281.675781 468.617188 L 279.996094 470.800781 L 275.882813 474.578125 L 275.292969 476.085938 L 274.875 476.84375 L 274.289063 477.765625 L 273.53125 478.773438 L 272.609375 479.863281 L 272.609375 481.964844 L 274.203125 481.964844 L 274.957031 481.796875 L 276.050781 481.375 L 277.140625 480.703125 L 278.484375 479.863281 L 279.238281 478.855469 L 280.078125 478.019531 L 280.835938 477.261719 L 281.589844 476.675781 L 282.179688 476.085938 L 282.765625 475.667969 L 283.269531 475.246094 L 283.773438 475.078125 L 284.191406 474.578125 L 284.695313 473.988281 L 285.285156 473.148438 L 285.957031 472.226563 L 290.238281 464.839844 L 290.824219 463.410156 L 291.496094 462.320313 L 292.167969 461.398438 L 292.839844 460.640625 L 295.523438 456.949219 L 297.035156 451.15625 L 297.457031 449.898438 L 298.210938 448.722656 L 299.722656 446.371094 L 300.140625 445.449219 L 301.738281 443.851563 L 302.242188 443.433594 L 302.914063 443.183594 L 309.460938 437.304688 L 311.390625 435.207031 L 311.976563 434.453125 L 312.144531 434.117188 L 312.398438 433.949219 L 312.566406 433.695313 L 312.480469 433.613281 L 315.671875 429.332031 L 317.855469 424.546875 L 317.265625 408.429688 L 317.351563 408.765625 L 317.519531 408.933594 L 317.6875 408.847656 L 317.855469 408.679688 L 318.859375 404.316406 L 319.113281 403.5625 L 319.617188 402.972656 L 320.203125 402.21875 L 320.960938 401.714844 L 321.042969 400.539063 L 321.378906 399.53125 L 321.882813 398.441406 L 322.636719 397.433594 L 325.242188 393.738281 L 338.085938 383.667969 L 337.832031 383.667969 L 337.917969 383.582031 L 338.085938 383.332031 L 338.503906 383.078125 L 339.59375 381.902344 L 340.855469 380.8125 L 342.199219 379.554688 L 343.792969 378.292969 L 344.378906 377.707031 L 344.96875 377.285156 L 345.136719 377.117188 L 345.386719 377.117188 L 345.640625 377.203125 L 349.082031 377.285156 L 351.261719 376.867188 L 350.675781 376.949219 L 350.421875 377.117188 L 350.757813 377.285156 L 351.09375 377.203125 L 351.597656 377.203125 L 352.691406 376.949219 L 353.949219 376.613281 L 355.542969 376.195313 L 358.648438 374.601563 L 359.320313 374.179688 L 359.910156 373.84375 L 360.328125 373.507813 L 360.664063 373.339844 L 360.75 373.171875 L 360.75 373.089844 L 360.582031 373.003906 L 360.328125 373.003906 L 366.625 370.320313 L 366.121094 368.722656 L 367.296875 367.632813 L 368.554688 366.710938 L 370.402344 365.617188 L 371.660156 365.113281 L 373.089844 365.199219 L 382.070313 366.039063 L 386.855469 367.214844 L 398.523438 366.039063 L 401.210938 360.75 L 401.042969 358.734375 L 403.222656 357.308594 L 404.316406 356.804688 L 405.488281 356.554688 L 406.496094 356.050781 L 407 355.714844 L 407.589844 355.292969 L 408.597656 354.117188 L 409.769531 352.773438 L 410.863281 351.433594 L 411.785156 350.171875 L 412.375 348.996094 L 412.878906 347.992188 L 414.472656 341.695313 L 414.640625 340.6875 L 414.976563 340.015625 L 415.226563 339.597656 L 415.5625 339.511719 L 417.746094 336.324219 L 418.5 334.894531 L 419.425781 333.46875 L 420.515625 331.957031 L 421.859375 330.53125 L 422.109375 330.027344 L 422.445313 329.691406 L 423.117188 329.105469 L 423.621094 328.683594 L 424.125 328.515625 L 425.132813 327.339844 L 429.496094 319.28125 L 430.421875 311.390625 L 430.757813 308.707031 L 431.007813 306.019531 L 431.007813 300.730469 L 430.925781 299.722656 L 431.175781 299.21875 L 431.429688 298.96875 L 432.015625 299.136719 L 435.207031 297.039063 L 435.207031 296.785156 L 435.289063 296.785156 L 435.792969 296.28125 L 435.792969 296.03125 L 435.878906 296.03125 L 436.382813 295.527344 L 436.382813 294.9375 L 436.464844 294.9375 L 436.632813 294.433594 L 436.632813 293.847656 L 436.71875 293.847656 L 436.800781 293.34375 L 436.800781 290.070313 L 438.394531 285.871094 L 438.394531 281.59375 L 438.984375 280.082031 L 440.496094 277.898438 L 441.082031 274.121094 L 442.171875 233.828125 L 444.273438 233.242188 L 446.875 229.546875 L 449.054688 231.644531 L 450.652344 231.644531 L 452.75 229.546875 L 455.941406 223.167969 L 462.824219 213.597656 L 464.335938 211.75 L 465.761719 209.988281 L 467.019531 208.308594 L 468.195313 206.714844 L 469.707031 204.53125 L 470.042969 203.945313 L 470.460938 203.523438 L 471.050781 202.9375 L 471.46875 202.519531 L 471.890625 202.433594 L 473.566406 201.089844 L 475.164063 199.832031 L 476.421875 198.65625 L 477.679688 197.648438 L 486.746094 187.492188 L 487.753906 186.234375 L 488.929688 184.804688 L 490.1875 183.125 L 491.617188 181.195313 L 492.621094 179.097656 L 493.546875 177.335938 L 494.300781 175.738281 L 494.636719 174.984375 L 495.058594 174.398438 L 495.394531 173.390625 L 495.730469 172.632813 L 497.910156 166.253906 L 498.078125 165.582031 L 498.078125 165.332031 L 498.164063 165.164063 L 498.332031 164.828125 L 498.5 163.988281 L 498.582031 163.484375 L 498.75 163.0625 L 498.75 160.714844 L 498.835938 159.875 L 499.003906 159.371094 L 499.003906 158.113281 L 499.085938 157.777344 L 499.085938 156.515625 L 499.171875 156.179688 L 499.171875 156.011719 L 499.003906 152.488281 L 498.5 149.382813 L 498.164063 148.542969 L 497.996094 147.953125 L 497.828125 147.453125 L 497.910156 147.199219 L 497.40625 144.429688 L 497.070313 143.339844 L 496.902344 142.414063 L 496.820313 140.820313 L 496.316406 137.796875 L 495.308594 135.53125 L 494.636719 133.851563 L 494.050781 132.339844 L 492.621094 129.570313 L 489.9375 125.960938 L 489.265625 125.207031 L 488.929688 124.871094 L 488.675781 124.703125 L 488.003906 124.367188 L 487.335938 124.28125 L 485.152344 124.28125 L 481.960938 124.871094 L 480.367188 124.871094 L 476.171875 124.28125 L 474.492188 124.28125 L 471.890625 123.777344 L 469.707031 122.6875 L 468.617188 121.679688 L 467.691406 120.925781 L 466.769531 120.335938 L 466.011719 120.085938 L 465.257813 119.582031 L 465.003906 119.164063 L 464.921875 118.742188 L 464.753906 118.15625 L 464.753906 117.652344 L 465.003906 116.308594 L 463.832031 115.46875 L 462.824219 114.460938 L 461.730469 113.203125 L 460.222656 111.355469 L 458.625 110.011719 L 457.785156 109.257813 L 456.949219 108.835938 L 456.109375 108.667969 L 455.4375 108.921875 L 452.75 107.914063 L 450.398438 106.992188 L 448.386719 106.152344 L 446.875 105.394531 L 445.53125 104.554688 L 444.605469 103.800781 L 443.9375 103.128906 L 443.769531 102.542969 L 443.433594 101.785156 L 443.097656 101.199219 L 442.59375 100.777344 L 442.003906 100.527344 L 439.488281 99.855469 L 438.5625 99.183594 L 438.058594 98.765625 L 437.640625 98.429688 L 436.632813 97.589844 L 435.960938 96.917969 L 435.878906 96.832031 L 435.710938 96.664063 L 431.007813 95.574219 L 405.992188 95.070313 L 402.804688 94.0625 L 396.929688 93.558594 L 393.738281 91.378906 Z M 209.398438 307.699219 "/>
</g>
<path style=" stroke:none;fill-rule:evenodd;fill:rgb(10.594177%,9.812927%,9.423828%);fill-opacity:1;" d="M 393.738281 91.378906 L 391.640625 91.378906 L 386.855469 91.964844 L 385.765625 93.558594 L 385.09375 94.148438 L 384.671875 94.316406 L 384.335938 94.566406 L 383.496094 94.820313 L 382.992188 94.902344 L 382.574219 95.070313 L 379.46875 94.0625 L 377.789063 95.070313 L 375.1875 95.574219 L 375.1875 91.964844 L 374.097656 84.410156 L 371.914063 83.402344 L 370.570313 83.234375 L 369.226563 82.984375 L 367.882813 82.394531 L 366.875 81.890625 L 366.707031 81.808594 L 366.625 81.808594 L 364.023438 80.464844 L 363.6875 80.214844 L 363.433594 80.046875 L 362.929688 79.625 L 362.34375 79.121094 L 361.839844 78.617188 L 360.917969 77.777344 L 360.917969 77.945313 L 360.832031 78.113281 L 360.328125 78.113281 L 358.648438 77.359375 L 357.140625 76.4375 L 354.535156 75.429688 L 347.570313 76.4375 L 338.503906 72.238281 L 331.453125 72.324219 L 329.941406 73.328125 L 329.1875 73.75 L 328.851563 73.917969 L 328.683594 74.167969 L 328.429688 74.503906 L 328.347656 74.671875 L 328.429688 74.925781 L 321.632813 86.929688 L 321.296875 86.675781 L 320.960938 86.59375 L 320.457031 86.675781 L 319.867188 87.097656 L 317.351563 88.941406 L 315.671875 90.875 L 315.167969 91.125 L 314.664063 91.378906 L 314.078125 91.378906 L 314.078125 91.460938 L 313.574219 91.460938 L 305.011719 90.285156 L 303.75 90.117188 L 303.164063 89.949219 L 302.742188 89.867188 L 302.242188 89.53125 L 301.90625 89.277344 L 301.316406 88.691406 L 301.820313 87.097656 L 305.011719 86.59375 L 306.355469 86.339844 L 307.695313 86.339844 L 307.695313 86.59375 L 312.480469 85.5 L 313.152344 85.082031 L 313.992188 84.660156 L 314.832031 84.074219 L 315.671875 83.402344 L 316.175781 82.3125 L 316.847656 81.472656 L 317.519531 80.714844 L 318.359375 80.214844 L 323.140625 76.015625 L 323.980469 75.175781 L 324.484375 74.589844 L 324.652344 74.085938 L 324.652344 73.832031 L 325.828125 70.140625 L 325.828125 67.453125 L 321.96875 65.355469 L 321.128906 64.851563 L 320.457031 64.597656 L 319.867188 64.515625 L 319.363281 64.769531 L 316.679688 64.769531 L 311.390625 64.265625 L 309.796875 64.769531 L 308.367188 65.269531 L 307.109375 65.773438 L 306.019531 66.363281 L 305.179688 66.699219 L 304.675781 66.867188 L 304.085938 67.117188 L 302.574219 67.539063 L 300.730469 68.042969 L 298.128906 68.460938 L 297.539063 69.214844 L 297.121094 70.140625 L 296.53125 72.238281 L 295.691406 74.335938 L 294.433594 76.4375 L 293.761719 77.273438 L 293.257813 77.945313 L 292.753906 78.367188 L 292.25 78.617188 L 289.0625 81.304688 L 286.460938 80.714844 L 288.558594 76.4375 L 286.460938 71.652344 L 287.132813 69.550781 L 287.96875 67.789063 L 288.808594 66.195313 L 289.648438 64.769531 L 292.839844 60.066406 L 294.769531 57.128906 L 297.035156 54.695313 L 297.457031 54.191406 L 298.042969 53.855469 L 299.300781 53.433594 L 301.820313 52.597656 L 302.742188 51.925781 L 303.082031 51.589844 L 303.25 51.421875 L 303.25 51.335938 L 303.5 51.335938 L 303.5 51.085938 L 303.582031 51.085938 L 304.085938 50.582031 L 304.507813 49.910156 L 303.414063 45.125 L 298.632813 39.332031 L 294.9375 36.648438 L 293.929688 35.890625 L 293.089844 35.136719 L 292.335938 34.296875 L 291.746094 33.457031 L 291.160156 32.535156 L 290.742188 31.527344 L 290.152344 29.175781 L 287.96875 23.886719 L 286.710938 12.976563 L 286.542969 12.890625 L 286.460938 12.808594 L 286.125 12.136719 L 286.039063 11.96875 L 286.039063 11.882813 L 285.871094 11.128906 L 283.269531 11.128906 L 279.574219 13.730469 L 277.898438 15.410156 L 271.015625 27.078125 L 270.425781 28 L 270.175781 28.757813 L 269.921875 29.261719 L 269.921875 29.679688 L 267.90625 32.953125 L 262.535156 36.648438 L 253.46875 36.144531 L 252.628906 36.058594 L 252.042969 36.3125 L 251.621094 36.5625 L 251.371094 37.148438 L 248.683594 37.148438 L 245.496094 36.144531 L 237.605469 32.367188 L 225.851563 35.472656 L 225.433594 35.722656 L 225.179688 36.144531 L 225.097656 36.730469 L 225.347656 37.570313 L 225.851563 40.339844 L 225.683594 41.011719 L 225.515625 41.347656 L 225.433594 41.515625 L 225.433594 41.765625 L 225.097656 42.019531 L 224.84375 42.355469 L 224.257813 43.027344 L 219.976563 44.117188 L 218.96875 43.867188 L 218.128906 43.699219 L 216.535156 43.195313 L 215.78125 42.859375 L 215.191406 42.605469 L 214.101563 41.933594 L 213.429688 41.515625 L 212.925781 41.347656 L 212.335938 41.347656 L 211.835938 41.597656 L 209.902344 42.4375 L 208.222656 42.691406 L 206.714844 43.445313 L 202.515625 46.214844 L 200.835938 47.558594 L 199.242188 49.40625 L 197.984375 50.078125 L 197.058594 50.582031 L 193.953125 51.503906 L 188.667969 54.191406 L 187.238281 53.519531 L 185.980469 52.847656 L 184.886719 52.175781 L 183.964844 51.589844 L 182.539063 50.414063 L 181.78125 49.40625 L 178.003906 44.117188 L 178.171875 42.773438 L 178.257813 41.429688 L 178.171875 40.089844 L 178.003906 38.746094 L 177.164063 38.074219 L 176.492188 37.484375 L 175.824219 36.816406 L 175.320313 36.144531 L 174.984375 35.640625 L 174.816406 35.21875 L 174.5625 34.210938 L 174.5625 33.039063 L 174.816406 31.863281 L 175.90625 25.480469 L 176.160156 23.972656 L 176.492188 22.710938 L 176.746094 21.539063 L 177 20.613281 L 177.082031 19.691406 L 177.25 19.019531 L 177.332031 18.429688 L 177.5 18.09375 L 178.003906 12.722656 L 178.089844 11.96875 L 178.089844 11.632813 L 178.171875 11.464844 L 178.089844 11.210938 L 178.003906 11.128906 L 178.003906 11.210938 L 177.5 11.128906 L 177.164063 10.960938 L 177 10.792969 L 176.746094 10.539063 L 176.410156 10.121094 L 174.816406 7.9375 L 173.976563 6.929688 L 173.386719 6.425781 L 172.96875 6.175781 L 172.71875 6.34375 L 172.128906 1.054688 L 170.535156 -0.0351563 L 166.335938 0.46875 L 166.335938 5.757813 L 164.742188 7.9375 L 163.988281 8.609375 L 163.230469 9.449219 L 161.050781 11.128906 L 160.378906 11.378906 L 159.875 11.714844 L 159.371094 11.882813 L 159.117188 12.136719 L 158.867188 12.136719 L 158.78125 12.21875 L 158.699219 12.21875 L 158.867188 12.21875 L 153.746094 17.171875 L 153.074219 17.339844 L 152.402344 17.589844 L 150.890625 18.09375 L 140.820313 19.101563 L 138.132813 21.203125 L 134.4375 22.292969 L 122.769531 20.699219 L 121.765625 17.507813 L 119.078125 17.003906 L 117.398438 17.003906 L 113.789063 17.507813 L 114.796875 22.292969 L 115.132813 23.214844 L 115.636719 22.710938 L 116.390625 22.796875 L 117.0625 23.132813 L 117.652344 23.886719 L 118.070313 24.8125 L 118.488281 26.070313 L 119.246094 29.09375 L 118.992188 29.09375 L 119.078125 29.679688 L 118.910156 30.433594 L 118.824219 31.273438 L 118.488281 32.953125 L 119.582031 38.15625 L 122.183594 40.84375 L 126.464844 41.933594 L 127.050781 44.117188 L 125.371094 45.125 L 123.863281 47.308594 L 122.183594 50.414063 L 117.902344 53.097656 L 114.207031 54.191406 L 113.203125 54.359375 L 112.445313 54.695313 L 111.859375 54.945313 L 111.605469 55.28125 L 110.597656 56.039063 L 109.507813 56.960938 L 108.25 57.882813 L 106.820313 58.976563 L 103.632813 58.976563 L 100.441406 59.480469 L 96.75 62.667969 L 90.871094 63.257813 L 89.867188 60.066406 L 89.445313 58.976563 L 89.109375 58.554688 L 88.859375 58.304688 L 88.101563 57.882813 L 87.597656 57.800781 L 87.179688 57.882813 L 86.085938 57.632813 L 85.082031 57.296875 L 84.15625 56.625 L 83.402344 55.785156 L 83.402344 51 L 79.792969 47.8125 L 76.519531 46.71875 L 75.929688 48.820313 L 75.59375 49.65625 L 75.257813 50.246094 L 75.007813 50.246094 L 75.007813 50.328125 L 74.839844 50.414063 L 74.417969 50.414063 L 70.140625 46.71875 L 69.972656 46.972656 L 69.886719 47.308594 L 69.71875 47.558594 L 69.636719 47.894531 L 69.300781 48.316406 L 68.964844 48.820313 L 68.460938 49.15625 L 68.039063 49.488281 L 67.453125 49.65625 L 66.949219 49.910156 L 65.773438 50.160156 L 64.851563 49.910156 L 59.980469 49.910156 L 56.289063 50.414063 L 55.363281 50.414063 L 54.523438 50.664063 L 53.519531 50.917969 L 52.59375 51.503906 L 50.496094 52.597656 L 49.910156 52.761719 L 49.488281 53.015625 L 48.984375 53.351563 L 48.734375 53.519531 L 48.902344 53.601563 L 48.3125 58.386719 L 48.144531 59.394531 L 48.144531 60.152344 L 48.230469 60.65625 L 48.480469 60.992188 L 48.648438 60.992188 L 48.984375 60.738281 L 49.40625 60.234375 L 49.992188 59.480469 L 56.875 60.570313 L 57.378906 63.675781 L 55.28125 65.355469 L 49.992188 65.355469 L 49.152344 65.4375 L 48.3125 65.859375 L 47.472656 66.445313 L 46.800781 67.453125 L 45.710938 69.046875 L 45.207031 70.644531 L 45.207031 72.238281 L 45.375 73.664063 L 45.710938 75.007813 L 46.046875 76.101563 L 46.46875 77.105469 L 46.800781 77.863281 L 47.222656 78.449219 L 47.726563 78.871094 L 48.3125 79.121094 L 51 79.625 L 52.007813 79.792969 L 52.679688 80.128906 L 52.847656 80.378906 L 52.761719 80.546875 L 52.59375 80.714844 L 53.351563 81.554688 L 53.433594 81.722656 L 53.601563 81.976563 L 53.9375 82.480469 L 54.441406 83.234375 L 54.609375 83.570313 L 54.691406 83.738281 L 54.859375 83.992188 L 54.945313 84.328125 L 55.113281 84.746094 L 55.195313 85.082031 L 55.195313 85.332031 L 55.28125 85.5 L 55.195313 85.667969 L 55.195313 86.425781 L 55.113281 87.433594 L 54.945313 87.851563 L 54.859375 88.355469 L 54.691406 89.277344 L 53.6875 94.0625 L 53.351563 94.734375 L 53.183594 95.40625 L 53.097656 96.496094 L 53.183594 97.253906 L 53.351563 97.503906 L 53.6875 97.757813 L 52.59375 103.550781 L 52.425781 106.320313 L 52.59375 108.332031 L 52.511719 109.507813 L 52.34375 110.851563 L 49.40625 122.6875 L 49.152344 124.03125 L 49.070313 124.535156 L 49.070313 125.207031 L 49.152344 125.375 L 49.40625 125.375 L 49.070313 126.128906 L 48.902344 127.136719 L 48.816406 128.226563 L 48.902344 129.570313 L 48.816406 129.570313 L 48.816406 130.160156 L 48.734375 130.664063 L 48.566406 131.082031 L 48.480469 131.417969 L 48.144531 131.585938 L 47.894531 131.753906 L 47.304688 131.753906 L 44.621094 129.066406 L 41.429688 126.96875 L 38.828125 126.96875 L 34.546875 131.25 L 31.273438 132.257813 L 24.976563 132.257813 L 22.878906 132.84375 L 19.183594 136.539063 L 15.996094 138.21875 L 10.035156 144.511719 L 9.027344 147.199219 L 9.53125 148.792969 L 9.699219 149.550781 L 9.953125 150.390625 L 10.289063 151.898438 L 10.289063 152.152344 L 10.371094 152.488281 L 10.539063 153.074219 L 10.539063 153.578125 L 10.625 154.082031 L 10.539063 154.417969 L 10.457031 154.921875 L 10.289063 155.425781 L 10.121094 156.097656 L 9.449219 157.523438 L 9.027344 158.363281 L 8.609375 159.371094 L 6.929688 160.964844 L 5.167969 162.476563 L 3.238281 164.15625 L 1.558594 166.84375 L 0.046875 176.328125 L 1.054688 179.519531 L 1.640625 181.027344 L 2.0625 181.617188 L 2.648438 182.203125 L 7.433594 189.171875 L 10.625 192.863281 L 12.21875 193.957031 L 13.308594 196.136719 L 12.722656 197.648438 L 12.386719 198.320313 L 12.050781 199.074219 L 11.882813 199.160156 L 11.796875 199.328125 L 11.628906 199.664063 L 11.460938 199.746094 L 11.378906 199.914063 L 11.210938 200.25 L 12.722656 199.832031 L 13.394531 199.578125 L 13.980469 199.496094 L 14.484375 199.578125 L 14.90625 199.832031 L 17.507813 200.25 L 23.382813 205.625 L 24.472656 207.722656 L 32.953125 207.722656 L 33.625 206.714844 L 34.464844 205.960938 L 35.300781 205.371094 L 36.140625 205.121094 L 36.226563 204.953125 L 36.394531 204.867188 L 36.730469 204.699219 L 37.148438 204.363281 L 37.234375 203.859375 L 37.234375 203.441406 L 37.738281 201.929688 L 39.917969 200.839844 L 41.429688 200.839844 L 41.429688 209.316406 L 41.933594 213.09375 L 41.933594 217.878906 L 43.613281 219.976563 L 46.214844 219.390625 L 48.3125 217.292969 L 58.972656 217.292969 L 63.253906 218.886719 L 63.925781 219.054688 L 64.515625 219.472656 L 64.933594 219.894531 L 65.355469 220.480469 L 69.132813 220.480469 L 71.816406 218.382813 L 74.417969 215.191406 L 79.792969 215.695313 L 94.648438 200.25 L 106.234375 199.832031 L 107.914063 202.433594 L 107.914063 205.121094 L 107.578125 205.875 L 107.410156 206.796875 L 107.242188 207.722656 L 107.324219 208.8125 L 107.324219 215.695313 L 108.417969 221.070313 L 109.003906 223.082031 L 109.925781 225.265625 L 111.605469 228.457031 L 113.035156 229.632813 L 114.375 230.722656 L 115.636719 231.730469 L 116.8125 232.652344 L 117.734375 233.324219 L 117.902344 233.410156 L 118.152344 233.578125 L 118.65625 233.914063 L 119.414063 234.414063 L 120.085938 234.835938 L 121.09375 235.253906 L 122.265625 235.675781 L 124.871094 236.429688 L 149.882813 244.40625 L 149.882813 246.921875 L 150.050781 247.34375 L 150.304688 247.59375 L 150.808594 247.929688 L 151.226563 248.015625 L 151.898438 248.097656 L 153.578125 248.097656 L 160.460938 249.191406 L 166.335938 248.6875 L 170.03125 250.195313 L 172.71875 254.476563 L 173.808594 259.347656 L 173.976563 260.1875 L 174.144531 261.277344 L 174.226563 262.535156 L 174.226563 263.207031 L 174.3125 264.046875 L 174.3125 270.425781 L 174.226563 271.015625 L 174.226563 271.9375 L 174.3125 273.03125 L 174.480469 274.457031 L 174.5625 276.050781 L 174.730469 277.980469 L 174.984375 280.164063 L 175.320313 282.683594 L 199.242188 283.773438 L 199.242188 285.871094 L 198.65625 287.71875 L 198.402344 289.398438 L 198.152344 290.742188 L 198.152344 292.421875 L 198.402344 293.09375 L 198.65625 293.679688 L 199.242188 294.351563 L 202.515625 298.632813 L 203.019531 299.304688 L 203.609375 299.890625 L 204.28125 300.3125 L 205.117188 300.730469 L 205.539063 301.402344 L 206.042969 302.15625 L 207.050781 303.332031 L 207.890625 304.257813 L 208.308594 304.59375 L 208.8125 305.011719 L 209.398438 305.515625 L 209.734375 306.1875 L 209.734375 306.859375 L 209.398438 307.699219 Z M 393.738281 91.378906 "/>
<path style="fill-rule:evenodd;fill:rgb(100%,100%,100%);fill-opacity:1;stroke-width:2.16;stroke-linecap:butt;stroke-linejoin:miter;stroke:rgb(100%,100%,100%);stroke-opacity:1;stroke-miterlimit:4;" d="M 3786.367188 4315.421875 L 4863.789063 4039.484375 L 4620.703125 3848.507813 C 4637.382813 3700.695313 4470.078125 3631.710938 4394.765625 3523.351563 L 3174.375 2220.421875 C 3180.234375 2083.273438 3002.109375 1981.125 2797.734375 1914.054688 C 2745.585938 1751.554688 2640.9375 1659.171875 2483.671875 1636.828125 L 2091.367188 1240.773438 L 1670.898438 2305.070313 L 2735.273438 3421.867188 C 2932.929688 3570.1875 3091.132813 3495.148438 3328.164063 3866.867188 C 3473.476563 3975.8125 3539.921875 4163.585938 3764.023438 4206.828125 Z M 3786.367188 4315.421875 " transform="matrix(0.1,0,0,-0.1,0,505.3)"/>
<path style="fill-rule:evenodd;fill:rgb(100%,100%,100%);fill-opacity:1;stroke-width:10.001;stroke-linecap:butt;stroke-linejoin:miter;stroke:rgb(100%,100%,100%);stroke-opacity:1;stroke-miterlimit:4;" d="M 2006.5625 2565.070313 L 2006.5625 2201.320313 L 1638.59375 2201.320313 L 1638.59375 3245.226563 L 2173.90625 3245.226563 C 2269.257813 3245.226563 2370.898438 3226.398438 2442.148438 3158.15625 C 2510.234375 3093.195313 2533.945313 3004.445313 2533.945313 2912.570313 C 2533.945313 2815.34375 2506.875 2724.796875 2434.609375 2657.179688 C 2356.445313 2584.132813 2243.554688 2565.070313 2140.351563 2565.070313 Z M 3235.195313 2939.328125 L 3235.195313 2201.320313 L 2868.59375 2201.320313 L 2868.59375 2939.328125 L 2559.84375 2939.328125 L 2559.84375 3245.226563 L 3544.21875 3245.226563 L 3544.21875 2939.328125 Z M 4434.648438 2759.757813 C 4471.445313 2742.84375 4505 2719.5625 4531.015625 2687.453125 C 4571.484375 2636.945313 4587.773438 2576.203125 4587.773438 2512.0625 C 4587.773438 2457.765625 4575.351563 2406.007813 4548.085938 2358.859375 C 4521.484375 2313.3125 4485.15625 2277.414063 4439.492188 2251.007813 C 4402.96875 2229.953125 4353.984375 2220.382813 4312.65625 2215.070313 C 4284.023438 2211.320313 4255.3125 2207.726563 4226.601563 2204.875 C 4208.945313 2203.117188 4190.46875 2201.320313 4172.734375 2201.320313 L 3618.046875 2201.320313 L 3618.046875 3245.226563 L 4217.03125 3245.226563 C 4303.125 3245.226563 4391.25 3226.671875 4456.132813 3166.476563 C 4513.320313 3113.664063 4542.382813 3047.21875 4542.382813 2969.40625 C 4542.382813 2905.34375 4522.539063 2847.6875 4480.429688 2799.171875 C 4466.992188 2783.859375 4451.484375 2770.851563 4434.648438 2759.757813 Z M 2006.5625 2827.414063 L 2048.828125 2827.414063 C 2077.851563 2827.414063 2127.695313 2830.070313 2151.015625 2850.03125 C 2167.65625 2864.40625 2175.3125 2881.671875 2175.3125 2903.664063 C 2175.3125 2925.5 2168.710938 2944.054688 2153.476563 2959.796875 L 2153.242188 2960.03125 C 2134.53125 2979.796875 2085.859375 2982.257813 2060.9375 2982.257813 L 2006.5625 2982.257813 Z M 3987.382813 2860.734375 L 4087.148438 2860.734375 C 4108.125 2860.734375 4147.929688 2862.6875 4164.960938 2877.21875 C 4178.28125 2889.171875 4181.71875 2906.515625 4181.71875 2923.78125 C 4181.71875 2940.265625 4177.929688 2955.421875 4165.117188 2966.515625 C 4148.398438 2981.007813 4110 2982.921875 4089.21875 2982.921875 L 3987.382813 2982.921875 Z M 3987.382813 2475.734375 L 4110 2475.734375 C 4134.921875 2475.734375 4179.296875 2478.117188 4199.375 2495.578125 C 4214.84375 2508.9375 4220.507813 2525.890625 4220.507813 2546.085938 C 4220.507813 2564.71875 4214.765625 2579.40625 4200.351563 2591.359375 C 4179.921875 2608.234375 4134.296875 2610.5 4109.296875 2610.5 L 3987.382813 2610.5 Z M 3987.382813 2475.734375 " transform="matrix(0.1,0,0,-0.1,0,505.3)"/>
<path style="fill-rule:evenodd;fill:rgb(10.594177%,9.812927%,9.423828%);fill-opacity:1;stroke-width:10.001;stroke-linecap:butt;stroke-linejoin:miter;stroke:rgb(100%,100%,100%);stroke-opacity:1;stroke-miterlimit:4;" d="M 1670.46875 3213.351563 L 2173.90625 3213.351563 C 2283.4375 3213.351563 2365.585938 3187.335938 2420.117188 3135.070313 C 2474.648438 3083.039063 2502.03125 3008.664063 2502.03125 2912.570313 C 2502.03125 2813.546875 2472.382813 2736.164063 2412.8125 2680.5 C 2353.242188 2624.796875 2262.421875 2596.984375 2140.351563 2596.984375 L 1974.648438 2596.984375 L 1974.648438 2233.195313 L 1670.46875 2233.195313 Z M 1974.648438 2795.5 L 2048.828125 2795.5 C 2107.265625 2795.5 2148.085938 2805.539063 2171.835938 2825.851563 C 2195.351563 2846.164063 2207.226563 2872.179688 2207.226563 2903.664063 C 2207.226563 2934.484375 2196.953125 2960.734375 2176.40625 2981.945313 C 2156.09375 3003.390625 2117.539063 3014.132813 2060.9375 3014.132813 L 1974.648438 3014.132813 Z M 2591.71875 3213.351563 L 3512.304688 3213.351563 L 3512.304688 2971.242188 L 3203.320313 2971.242188 L 3203.320313 2233.195313 L 2900.507813 2233.195313 L 2900.507813 2971.242188 L 2591.71875 2971.242188 Z M 3649.921875 3213.351563 L 4217.03125 3213.351563 C 4311.484375 3213.351563 4384.0625 3189.835938 4434.492188 3143.078125 C 4485.15625 3096.28125 4510.46875 3038.3125 4510.46875 2969.40625 C 4510.46875 2911.4375 4492.460938 2861.671875 4456.40625 2820.148438 C 4432.226563 2792.53125 4397.070313 2770.617188 4350.742188 2754.679688 C 4421.015625 2737.765625 4472.8125 2708.546875 4506.132813 2667.492188 C 4539.21875 2626.164063 4555.898438 2574.367188 4555.898438 2512.0625 C 4555.898438 2461.203125 4544.023438 2415.539063 4520.507813 2374.914063 C 4496.796875 2334.328125 4464.609375 2302.375 4423.554688 2278.625 C 4398.203125 2264.015625 4359.882813 2253.273438 4308.515625 2246.671875 C 4240.273438 2237.765625 4195.117188 2233.195313 4172.734375 2233.195313 L 3649.921875 2233.195313 Z M 3955.507813 2828.820313 L 4087.148438 2828.820313 C 4134.414063 2828.820313 4167.265625 2837.0625 4185.976563 2853.234375 C 4204.453125 2869.679688 4213.59375 2893.195313 4213.59375 2923.78125 C 4213.59375 2952.296875 4204.453125 2974.640625 4185.976563 2990.617188 C 4167.265625 3006.828125 4135.078125 3014.796875 4089.21875 3014.796875 L 3955.507813 3014.796875 Z M 3955.507813 2443.859375 L 4110 2443.859375 C 4162.226563 2443.859375 4198.984375 2452.960938 4220.195313 2471.476563 C 4241.679688 2489.953125 4252.382813 2514.835938 4252.382813 2546.085938 C 4252.382813 2575.070313 4241.875 2598.351563 4220.664063 2615.929688 C 4199.453125 2633.46875 4162.460938 2642.375 4109.296875 2642.375 L 3955.507813 2642.375 Z M 3955.507813 2443.859375 " transform="matrix(0.1,0,0,-0.1,0,505.3)"/>
</g>
</svg>
