<svg width="26" height="26" viewBox="0 0 26 26" fill="none" xmlns="http://www.w3.org/2000/svg">
<path d="M13 0C5.832 0 0 5.832 0 13C0 20.168 5.832 26 13 26C20.168 26 26 20.168 26 13C26 5.832 20.168 0 13 0ZM9.66602 4H16.332C19.457 4 22 6.54202 22 9.66602V16.332C22 19.457 19.458 22 16.334 22H9.66797C6.54297 22 4 19.458 4 16.334V9.66797C4 6.54297 6.54202 4 9.66602 4ZM9.66602 6C7.64502 6 6 7.64597 6 9.66797V16.334C6 18.355 7.64597 20 9.66797 20H16.334C18.355 20 20 18.354 20 16.332V9.66602C20 7.64502 18.354 6 16.332 6H9.66602ZM17.668 7.66602C18.036 7.66602 18.334 7.96403 18.334 8.33203C18.334 8.70003 18.036 9 17.668 9C17.3 9 17 8.70003 17 8.33203C17 7.96403 17.3 7.66602 17.668 7.66602ZM13 8C15.757 8 18 10.243 18 13C18 15.757 15.757 18 13 18C10.243 18 8 15.757 8 13C8 10.243 10.243 8 13 8ZM13 10C12.2044 10 11.4413 10.3161 10.8787 10.8787C10.3161 11.4413 10 12.2044 10 13C10 13.7956 10.3161 14.5587 10.8787 15.1213C11.4413 15.6839 12.2044 16 13 16C13.7956 16 14.5587 15.6839 15.1213 15.1213C15.6839 14.5587 16 13.7956 16 13C16 12.2044 15.6839 11.4413 15.1213 10.8787C14.5587 10.3161 13.7956 10 13 10Z" fill="#003153"/>
</svg>
