<svg width="28" height="28" viewBox="0 0 28 28" fill="none" xmlns="http://www.w3.org/2000/svg">
<path d="M14 0.199997C6.3902 0.199997 0.200001 6.3902 0.200001 14C0.200001 21.6098 6.3902 27.8 14 27.8C21.6098 27.8 27.8 21.6098 27.8 14C27.8 6.3902 21.6098 0.199997 14 0.199997ZM20.7422 11.3144C20.7482 11.456 20.7518 11.6 20.7518 11.7446C20.7518 16.1354 17.408 21.2 11.2946 21.2C9.4178 21.2 7.67 20.6498 6.2 19.7066C6.4598 19.7378 6.7232 19.7528 6.9926 19.7528C8.5502 19.7528 9.9836 19.2224 11.12 18.3308C9.6656 18.3044 8.4392 17.3414 8.015 16.0226C8.2184 16.0616 8.4266 16.0826 8.6414 16.0826C8.9444 16.0826 9.2384 16.0424 9.5162 15.9656C7.997 15.659 6.8516 14.3174 6.8516 12.7064C6.8516 12.692 6.8516 12.6782 6.8516 12.6644C7.2998 12.9134 7.8116 13.0634 8.357 13.0808C7.4642 12.4838 6.8786 11.4674 6.8786 10.3142C6.8786 9.7052 7.0418 9.1346 7.328 8.6426C8.9678 10.6532 11.417 11.9762 14.1788 12.1154C14.1218 11.8718 14.0918 11.6186 14.0918 11.3582C14.0918 9.5228 15.5798 8.0348 17.4158 8.0348C18.3716 8.0348 19.235 8.438 19.841 9.0842C20.5976 8.9354 21.3098 8.6588 21.9518 8.2784C21.704 9.0536 21.1766 9.7052 20.4896 10.1168C21.1628 10.0352 21.8024 9.8576 22.3994 9.593C21.9542 10.2596 21.3908 10.8458 20.7422 11.3144Z" fill="#003153"/>
</svg>
